<svg xmlns="http://www.w3.org/2000/svg" shape-rendering="geometricPrecision" text-rendering="geometricPrecision" image-rendering="optimizeQuality" fill-rule="evenodd" clip-rule="evenodd" viewBox="0 0 415 512.572" fill="#efefef">
  <path fill-rule="nonzero" d="M106.95 272.977C77.295 308.991 36.099 366.155 5.112 397.142.484 404.853-.959 413.536.61 421.595c1.609 8.3 6.324 15.885 13.944 21.102l2.601 1.589 134.967 68.286 11.746-23.296c-12.434-6.292-93.43-46.069-123.485-61.863 113.328-8.43 202.581-50.997 265.63-119.244C375.634 232.813 412.909 126.414 415 .411L388.954 0c-1.984 119.466-36.916 219.904-102.142 290.502-59.271 64.156-143.951 103.929-252.057 111.185l92.32-112.157-20.125-16.553z"/>
</svg>